<svg width="110" height="110" viewBox="0 0 110 110" fill="none" xmlns="http://www.w3.org/2000/svg">
<rect width="110" height="110" fill="#1E2838"/>
<path d="M2 18C2 9.16344 9.16344 2 18 2L108 2V92C108 100.837 100.837 108 92 108H2L2 18Z" fill="#2AAAA1"/>
<path d="M35.2734 40.7969C35.2734 41.2448 35.1875 41.6641 35.0156 42.0547C34.849 42.4401 34.6198 42.7786 34.3281 43.0703C34.0417 43.3568 33.7031 43.5833 33.3125 43.75C32.9219 43.9167 32.5078 44 32.0703 44H24.4844V42.3984H32.0703C32.2891 42.3984 32.4948 42.3568 32.6875 42.2734C32.8854 42.1901 33.0573 42.0755 33.2031 41.9297C33.349 41.7839 33.4635 41.6146 33.5469 41.4219C33.6302 41.224 33.6719 41.0156 33.6719 40.7969C33.6719 40.5781 33.6302 40.3724 33.5469 40.1797C33.4635 39.987 33.349 39.8177 33.2031 39.6719C33.0573 39.526 32.8854 39.4115 32.6875 39.3281C32.4948 39.2448 32.2891 39.2031 32.0703 39.2031H24.4844V37.6016H30.4688C30.6875 37.6016 30.8932 37.5599 31.0859 37.4766C31.2839 37.3932 31.4557 37.2786 31.6016 37.1328C31.7474 36.987 31.862 36.8177 31.9453 36.625C32.0286 36.4271 32.0703 36.2188 32.0703 36C32.0703 35.7812 32.0286 35.5755 31.9453 35.3828C31.862 35.1849 31.7474 35.013 31.6016 34.8672C31.4557 34.7214 31.2839 34.6068 31.0859 34.5234C30.8932 34.4401 30.6875 34.3984 30.4688 34.3984H23.6875V44H22.0859V32.7969H30.4688C30.9062 32.7969 31.3203 32.8828 31.7109 33.0547C32.1016 33.2214 32.4401 33.4505 32.7266 33.7422C33.0182 34.0286 33.2474 34.3672 33.4141 34.7578C33.5859 35.1484 33.6719 35.5625 33.6719 36C33.6719 36.3385 33.6224 36.6589 33.5234 36.9609C33.4245 37.2578 33.2917 37.5339 33.125 37.7891C33.4375 37.8984 33.724 38.0521 33.9844 38.25C34.25 38.4479 34.4766 38.6771 34.6641 38.9375C34.8568 39.1979 35.0052 39.487 35.1094 39.8047C35.2188 40.1172 35.2734 40.4479 35.2734 40.7969ZM47.1953 38C47.1953 38.3906 47.1224 38.7552 46.9766 39.0938C46.8307 39.4323 46.6302 39.7292 46.375 39.9844C46.125 40.2344 45.8281 40.4323 45.4844 40.5781C45.1458 40.724 44.7839 40.7969 44.3984 40.7969H38.2656C38.3802 41.0312 38.5234 41.2474 38.6953 41.4453C38.8672 41.6432 39.0599 41.8125 39.2734 41.9531C39.487 42.0938 39.7188 42.2031 39.9688 42.2812C40.224 42.3594 40.4896 42.3984 40.7656 42.3984H46V44H40.7656C40.1615 43.9948 39.5938 43.8776 39.0625 43.6484C38.5312 43.4141 38.0677 43.099 37.6719 42.7031C37.2812 42.3021 36.9714 41.8359 36.7422 41.3047C36.513 40.7734 36.3984 40.2057 36.3984 39.6016C36.3984 38.9974 36.513 38.4297 36.7422 37.8984C36.9714 37.3672 37.2812 36.9036 37.6719 36.5078C38.0677 36.1068 38.5312 35.7917 39.0625 35.5625C39.5938 35.3281 40.1615 35.2083 40.7656 35.2031H44.3984C44.7839 35.2031 45.1458 35.276 45.4844 35.4219C45.8281 35.5677 46.125 35.7682 46.375 36.0234C46.6302 36.2734 46.8307 36.5677 46.9766 36.9062C47.1224 37.2448 47.1953 37.6094 47.1953 38ZM44.3984 39.2031C44.5599 39.2031 44.7135 39.1719 44.8594 39.1094C45.0052 39.0469 45.1328 38.9609 45.2422 38.8516C45.3516 38.7422 45.4375 38.6146 45.5 38.4688C45.5625 38.3229 45.5938 38.1667 45.5938 38C45.5938 37.8385 45.5625 37.6849 45.5 37.5391C45.4375 37.3932 45.3516 37.2656 45.2422 37.1562C45.1328 37.0469 45.0052 36.9609 44.8594 36.8984C44.7135 36.8307 44.5599 36.7969 44.3984 36.7969H40.7656C40.4115 36.7969 40.0781 36.8594 39.7656 36.9844C39.4583 37.1094 39.1823 37.2812 38.9375 37.5C38.6979 37.7135 38.4974 37.9688 38.3359 38.2656C38.1797 38.5573 38.0781 38.8698 38.0312 39.2031H44.3984ZM51.8594 44H50.2578V36.7969H47.8594V35.2031H50.2578V32H51.8594V35.2031H57.4609V36.7969H51.8594V44ZM61.8125 44H60.2109V36.7969H57.8125V35.2031H60.2109V32H61.8125V35.2031H67.4141V36.7969H61.8125V44ZM78.8047 38C78.8047 38.3906 78.7318 38.7552 78.5859 39.0938C78.4401 39.4323 78.2396 39.7292 77.9844 39.9844C77.7344 40.2344 77.4375 40.4323 77.0938 40.5781C76.7552 40.724 76.3932 40.7969 76.0078 40.7969H69.875C69.9896 41.0312 70.1328 41.2474 70.3047 41.4453C70.4766 41.6432 70.6693 41.8125 70.8828 41.9531C71.0964 42.0938 71.3281 42.2031 71.5781 42.2812C71.8333 42.3594 72.099 42.3984 72.375 42.3984H77.6094V44H72.375C71.7708 43.9948 71.2031 43.8776 70.6719 43.6484C70.1406 43.4141 69.6771 43.099 69.2812 42.7031C68.8906 42.3021 68.5807 41.8359 68.3516 41.3047C68.1224 40.7734 68.0078 40.2057 68.0078 39.6016C68.0078 38.9974 68.1224 38.4297 68.3516 37.8984C68.5807 37.3672 68.8906 36.9036 69.2812 36.5078C69.6771 36.1068 70.1406 35.7917 70.6719 35.5625C71.2031 35.3281 71.7708 35.2083 72.375 35.2031H76.0078C76.3932 35.2031 76.7552 35.276 77.0938 35.4219C77.4375 35.5677 77.7344 35.7682 77.9844 36.0234C78.2396 36.2734 78.4401 36.5677 78.5859 36.9062C78.7318 37.2448 78.8047 37.6094 78.8047 38ZM76.0078 39.2031C76.1693 39.2031 76.3229 39.1719 76.4688 39.1094C76.6146 39.0469 76.7422 38.9609 76.8516 38.8516C76.9609 38.7422 77.0469 38.6146 77.1094 38.4688C77.1719 38.3229 77.2031 38.1667 77.2031 38C77.2031 37.8385 77.1719 37.6849 77.1094 37.5391C77.0469 37.3932 76.9609 37.2656 76.8516 37.1562C76.7422 37.0469 76.6146 36.9609 76.4688 36.8984C76.3229 36.8307 76.1693 36.7969 76.0078 36.7969H72.375C72.0208 36.7969 71.6875 36.8594 71.375 36.9844C71.0677 37.1094 70.7917 37.2812 70.5469 37.5C70.3073 37.7135 70.1068 37.9688 69.9453 38.2656C69.7891 38.5573 69.6875 38.8698 69.6406 39.2031H76.0078ZM89.1172 36.7969H83.1172C82.9505 36.7969 82.7943 36.8307 82.6484 36.8984C82.5026 36.9609 82.375 37.0469 82.2656 37.1562C82.1562 37.2656 82.0703 37.3932 82.0078 37.5391C81.9453 37.6849 81.9141 37.8385 81.9141 38V44H80.3125V38C80.3125 37.6094 80.3854 37.2448 80.5312 36.9062C80.6771 36.5677 80.8776 36.2734 81.1328 36.0234C81.388 35.7682 81.6849 35.5677 82.0234 35.4219C82.362 35.276 82.7266 35.2031 83.1172 35.2031H89.1172V36.7969ZM25.457 73H8.07812V56.1953H25.457V58.5977H10.4805V70.5977H25.457V73ZM23.418 65.8047H11.6758V63.4023H23.418V65.8047ZM42.7305 73H40.3281V62.1953H33.7305C33.1523 62.1953 32.6094 62.3086 32.1016 62.5352C31.6016 62.7539 31.1641 63.0547 30.7891 63.4375C30.4141 63.8125 30.1172 64.2578 29.8984 64.7734C29.6875 65.2812 29.582 65.8242 29.582 66.4023C29.582 66.9805 29.6875 67.5234 29.8984 68.0312C30.1172 68.5312 30.4141 68.9727 30.7891 69.3555C31.1641 69.7305 31.6016 70.0312 32.1016 70.2578C32.6094 70.4766 33.1523 70.5898 33.7305 70.5977H39.1328V73H33.7305C32.8242 73 31.9727 72.8281 31.1758 72.4844C30.3789 72.1328 29.6836 71.6602 29.0898 71.0664C28.5039 70.4648 28.0391 69.7656 27.6953 68.9688C27.3516 68.1641 27.1797 67.3086 27.1797 66.4023C27.1797 65.4961 27.3516 64.6445 27.6953 63.8477C28.0391 63.0508 28.5039 62.3555 29.0898 61.7617C29.6836 61.1602 30.3789 60.6875 31.1758 60.3438C31.9727 59.9922 32.8242 59.8125 33.7305 59.8047H40.3281V55H42.7305V73ZM49.1758 56.8047C49.1758 57.0547 49.1289 57.2891 49.0352 57.5078C48.9414 57.7188 48.8125 57.9062 48.6484 58.0703C48.4844 58.2344 48.293 58.3633 48.0742 58.457C47.8555 58.5508 47.625 58.5977 47.3828 58.5977C47.1328 58.5977 46.8984 58.5508 46.6797 58.457C46.4609 58.3633 46.2695 58.2344 46.1055 58.0703C45.9414 57.9062 45.8125 57.7188 45.7188 57.5078C45.625 57.2891 45.5781 57.0547 45.5781 56.8047C45.5781 56.5625 45.625 56.332 45.7188 56.1133C45.8125 55.8945 45.9414 55.7031 46.1055 55.5391C46.2695 55.375 46.4609 55.2461 46.6797 55.1523C46.8984 55.0508 47.1328 55 47.3828 55C47.625 55 47.8555 55.0508 48.0742 55.1523C48.293 55.2461 48.4844 55.375 48.6484 55.5391C48.8125 55.7031 48.9414 55.8945 49.0352 56.1133C49.1289 56.332 49.1758 56.5625 49.1758 56.8047ZM48.5781 73H46.1758V59.8047H48.5781V73ZM65.8164 68.8047C65.8164 69.3828 65.707 69.9297 65.4883 70.4453C65.2695 70.9531 64.9688 71.3984 64.5859 71.7812C64.2109 72.1562 63.7656 72.4531 63.25 72.6719C62.7422 72.8906 62.1992 73 61.6211 73H51.4141V70.5977H61.6211C61.8633 70.5977 62.0938 70.5508 62.3125 70.457C62.5312 70.3633 62.7227 70.2344 62.8867 70.0703C63.0508 69.9062 63.1797 69.7188 63.2734 69.5078C63.3672 69.2891 63.4141 69.0547 63.4141 68.8047C63.4141 68.5625 63.3672 68.332 63.2734 68.1133C63.1797 67.8945 63.0508 67.7031 62.8867 67.5391C62.7227 67.375 62.5312 67.2461 62.3125 67.1523C62.0938 67.0508 61.8633 67 61.6211 67H55.0117C54.5117 67 54.043 66.9062 53.6055 66.7188C53.168 66.5312 52.7852 66.2773 52.457 65.957C52.1367 65.6289 51.8828 65.2461 51.6953 64.8086C51.5078 64.3711 51.4141 63.9023 51.4141 63.4023C51.4141 62.9023 51.5078 62.4336 51.6953 61.9961C51.8828 61.5586 52.1367 61.1797 52.457 60.8594C52.7852 60.5312 53.168 60.2734 53.6055 60.0859C54.043 59.8984 54.5117 59.8047 55.0117 59.8047H64.6211V62.1953H55.0117C54.6758 62.1953 54.3906 62.3125 54.1562 62.5469C53.9297 62.7734 53.8164 63.0586 53.8164 63.4023C53.8164 63.7383 53.9297 64.0234 54.1562 64.2578C54.3906 64.4844 54.6758 64.5977 55.0117 64.5977H61.6211C62.1992 64.5977 62.7422 64.707 63.25 64.9258C63.7656 65.1445 64.2109 65.4453 64.5859 65.8281C64.9688 66.2109 65.2695 66.6562 65.4883 67.1641C65.707 67.6719 65.8164 68.2188 65.8164 68.8047ZM84.2383 66.4023C84.2383 67.3086 84.0664 68.1602 83.7227 68.957C83.3789 69.7539 82.9102 70.4531 82.3164 71.0547C81.7305 71.6484 81.0391 72.1211 80.2422 72.4727C79.4453 72.8164 78.5938 72.9922 77.6875 73H73.9961C73.0898 72.9922 72.2383 72.8164 71.4414 72.4727C70.6445 72.1211 69.9492 71.6484 69.3555 71.0547C68.7695 70.4531 68.3047 69.7539 67.9609 68.957C67.6172 68.1602 67.4453 67.3086 67.4453 66.4023C67.4453 65.4961 67.6172 64.6445 67.9609 63.8477C68.3047 63.043 68.7695 62.3438 69.3555 61.75C69.9492 61.1484 70.6445 60.6758 71.4414 60.332C72.2383 59.9805 73.0898 59.8047 73.9961 59.8047H77.6875C78.2891 59.8047 78.8711 59.8828 79.4336 60.0391C79.9961 60.1953 80.5195 60.418 81.0039 60.707C81.4883 60.9961 81.9297 61.3438 82.3281 61.75C82.7266 62.1484 83.0664 62.5938 83.3477 63.0859C83.6289 63.5703 83.8477 64.0938 84.0039 64.6562C84.1602 65.2188 84.2383 65.8008 84.2383 66.4023ZM81.8477 66.4023C81.8477 65.8242 81.7383 65.2812 81.5195 64.7734C81.3008 64.2656 81.0039 63.8242 80.6289 63.4492C80.2539 63.0664 79.8125 62.7656 79.3047 62.5469C78.8047 62.3203 78.2656 62.2031 77.6875 62.1953H73.9961C73.418 62.2031 72.875 62.3203 72.3672 62.5469C71.8672 62.7656 71.4297 63.0664 71.0547 63.4492C70.6797 63.8242 70.3828 64.2656 70.1641 64.7734C69.9531 65.2812 69.8477 65.8242 69.8477 66.4023C69.8477 66.9805 69.9531 67.5234 70.1641 68.0312C70.3828 68.5391 70.6797 68.9844 71.0547 69.3672C71.4297 69.7422 71.8672 70.043 72.3672 70.2695C72.875 70.4883 73.418 70.5977 73.9961 70.5977H77.6875C78.2656 70.5977 78.8047 70.4883 79.3047 70.2695C79.8125 70.043 80.2539 69.7422 80.6289 69.3672C81.0039 68.9844 81.3008 68.5391 81.5195 68.0312C81.7383 67.5234 81.8477 66.9805 81.8477 66.4023ZM89.2656 73H86.8633V59.8047H95.8633C96.7695 59.8047 97.6211 59.9805 98.418 60.332C99.2148 60.6758 99.9102 61.1484 100.504 61.75C101.098 62.3438 101.566 63.043 101.91 63.8477C102.254 64.6445 102.426 65.4961 102.426 66.4023V73H100.023V66.4023C100.023 65.8242 99.9141 65.2812 99.6953 64.7734C99.4766 64.2656 99.1797 63.8242 98.8047 63.4492C98.4297 63.0664 97.9883 62.7656 97.4805 62.5469C96.9805 62.3203 96.4414 62.2031 95.8633 62.1953H89.2656V73Z" fill="white"/>
</svg>
