<svg width="213" height="76" viewBox="0 0 213 76" fill="none" xmlns="http://www.w3.org/2000/svg">
<path d="M127.838 4.50445L127.45 3.05557L126.001 3.44379L88.9592 13.3692C79.6235 15.8707 74.0833 25.4666 76.5848 34.8022L86.5102 71.8444L86.8984 73.2933L88.3473 72.905L125.389 62.9796C134.725 60.4781 140.265 50.8823 137.764 41.5466L127.838 4.50445Z" stroke="#2AAAA1" stroke-width="3"/>
<path d="M42.4902 57H4.83594V20.5898H42.4902V25.7949H10.041V51.7949H42.4902V57ZM38.0723 41.4101H12.6309V36.205H38.0723V41.4101ZM79.916 57H74.7109V33.5898H60.416C59.1634 33.5898 57.987 33.8353 56.8867 34.3261C55.8034 34.8001 54.8555 35.4518 54.043 36.2812C53.2305 37.0937 52.5872 38.0586 52.1133 39.1758C51.6562 40.276 51.4277 41.4524 51.4277 42.705C51.4277 43.9577 51.6562 45.1341 52.1133 46.2343C52.5872 47.3177 53.2305 48.2741 54.043 49.1035C54.8555 49.916 55.8034 50.5677 56.8867 51.0586C57.987 51.5325 59.1634 51.778 60.416 51.7949H72.1211V57H60.416C58.4525 57 56.6074 56.6276 54.8809 55.8828C53.1543 55.1211 51.6478 54.097 50.3613 52.8105C49.0918 51.5071 48.0846 49.9922 47.3398 48.2656C46.5951 46.5221 46.2227 44.6686 46.2227 42.705C46.2227 40.7415 46.5951 38.8965 47.3398 37.1699C48.0846 35.4433 49.0918 33.9368 50.3613 32.6504C51.6478 31.347 53.1543 30.3229 54.8809 29.5781C56.6074 28.8164 58.4525 28.4271 60.416 28.4101H74.7109V18H79.916V57ZM93.8809 21.9101C93.8809 22.4518 93.7793 22.9596 93.5762 23.4336C93.373 23.8906 93.0938 24.2968 92.7383 24.6523C92.3828 25.0078 91.9681 25.2871 91.4941 25.4902C91.0202 25.6933 90.5208 25.7949 89.9961 25.7949C89.4544 25.7949 88.9466 25.6933 88.4727 25.4902C87.9987 25.2871 87.584 25.0078 87.2285 24.6523C86.873 24.2968 86.5938 23.8906 86.3906 23.4336C86.1875 22.9596 86.0859 22.4518 86.0859 21.9101C86.0859 21.3854 86.1875 20.886 86.3906 20.4121C86.5938 19.9381 86.873 19.5234 87.2285 19.1679C87.584 18.8125 87.9987 18.5332 88.4727 18.33C88.9466 18.11 89.4544 18 89.9961 18C90.5208 18 91.0202 18.11 91.4941 18.33C91.9681 18.5332 92.3828 18.8125 92.7383 19.1679C93.0938 19.5234 93.373 19.9381 93.5762 20.4121C93.7793 20.886 93.8809 21.3854 93.8809 21.9101ZM92.5859 57H87.3809V28.4101H92.5859V57ZM129.936 47.9101C129.936 49.1627 129.699 50.3476 129.225 51.4648C128.751 52.5651 128.099 53.5299 127.27 54.3593C126.457 55.1718 125.492 55.8151 124.375 56.289C123.275 56.763 122.098 57 120.846 57H98.7305V51.7949H120.846C121.37 51.7949 121.87 51.6933 122.344 51.4902C122.818 51.2871 123.232 51.0078 123.588 50.6523C123.943 50.2968 124.223 49.8906 124.426 49.4336C124.629 48.9596 124.73 48.4518 124.73 47.9101C124.73 47.3854 124.629 46.886 124.426 46.4121C124.223 45.9381 123.943 45.5234 123.588 45.1679C123.232 44.8125 122.818 44.5332 122.344 44.33C121.87 44.11 121.37 44 120.846 44H106.525C105.442 44 104.426 43.7968 103.479 43.3906C102.531 42.9843 101.701 42.4342 100.99 41.7402C100.296 41.0293 99.7461 40.1998 99.3398 39.2519C98.9336 38.304 98.7305 37.2884 98.7305 36.205C98.7305 35.1217 98.9336 34.1061 99.3398 33.1582C99.7461 32.2103 100.296 31.3893 100.99 30.6953C101.701 29.9843 102.531 29.4258 103.479 29.0195C104.426 28.6133 105.442 28.4101 106.525 28.4101H127.346V33.5898H106.525C105.798 33.5898 105.18 33.8437 104.672 34.3515C104.181 34.8424 103.936 35.4603 103.936 36.205C103.936 36.9329 104.181 37.5508 104.672 38.0586C105.18 38.5494 105.798 38.7949 106.525 38.7949H120.846C122.098 38.7949 123.275 39.0319 124.375 39.5058C125.492 39.9798 126.457 40.6315 127.27 41.4609C128.099 42.2903 128.751 43.2552 129.225 44.3554C129.699 45.4557 129.936 46.6406 129.936 47.9101ZM169.85 42.705C169.85 44.6686 169.477 46.5136 168.732 48.2402C167.988 49.9668 166.972 51.4817 165.686 52.7851C164.416 54.0716 162.918 55.0957 161.191 55.8574C159.465 56.6022 157.62 56.983 155.656 57H147.658C145.695 56.983 143.85 56.6022 142.123 55.8574C140.396 55.0957 138.89 54.0716 137.604 52.7851C136.334 51.4817 135.327 49.9668 134.582 48.2402C133.837 46.5136 133.465 44.6686 133.465 42.705C133.465 40.7415 133.837 38.8965 134.582 37.1699C135.327 35.4264 136.334 33.9114 137.604 32.625C138.89 31.3216 140.396 30.2975 142.123 29.5527C143.85 28.791 145.695 28.4101 147.658 28.4101H155.656C156.96 28.4101 158.221 28.5794 159.439 28.9179C160.658 29.2565 161.792 29.7389 162.842 30.3652C163.891 30.9915 164.848 31.7448 165.711 32.625C166.574 33.4883 167.311 34.4531 167.92 35.5195C168.529 36.569 169.003 37.7031 169.342 38.9218C169.68 40.1406 169.85 41.4017 169.85 42.705ZM164.67 42.705C164.67 41.4524 164.433 40.276 163.959 39.1758C163.485 38.0755 162.842 37.1191 162.029 36.3066C161.217 35.4772 160.26 34.8255 159.16 34.3515C158.077 33.8606 156.909 33.6067 155.656 33.5898H147.658C146.406 33.6067 145.229 33.8606 144.129 34.3515C143.046 34.8255 142.098 35.4772 141.285 36.3066C140.473 37.1191 139.829 38.0755 139.355 39.1758C138.898 40.276 138.67 41.4524 138.67 42.705C138.67 43.9577 138.898 45.1341 139.355 46.2343C139.829 47.3346 140.473 48.2994 141.285 49.1289C142.098 49.9414 143.046 50.5931 144.129 51.084C145.229 51.5579 146.406 51.7949 147.658 51.7949H155.656C156.909 51.7949 158.077 51.5579 159.16 51.084C160.26 50.5931 161.217 49.9414 162.029 49.1289C162.842 48.2994 163.485 47.3346 163.959 46.2343C164.433 45.1341 164.67 43.9577 164.67 42.705ZM180.742 57H175.537V28.4101H195.037C197.001 28.4101 198.846 28.791 200.572 29.5527C202.299 30.2975 203.805 31.3216 205.092 32.625C206.378 33.9114 207.394 35.4264 208.139 37.1699C208.883 38.8965 209.256 40.7415 209.256 42.705V57H204.051V42.705C204.051 41.4524 203.814 40.276 203.34 39.1758C202.866 38.0755 202.223 37.1191 201.41 36.3066C200.598 35.4772 199.641 34.8255 198.541 34.3515C197.458 33.8606 196.29 33.6067 195.037 33.5898H180.742V57Z" fill="white"/>
<path d="M18.7734 11.7968C18.7734 12.2448 18.6875 12.664 18.5156 13.0547C18.349 13.4401 18.1198 13.7786 17.8281 14.0703C17.5417 14.3567 17.2031 14.5833 16.8125 14.75C16.4219 14.9166 16.0078 15 15.5703 15H7.98438V13.3984H15.5703C15.7891 13.3984 15.9948 13.3567 16.1875 13.2734C16.3854 13.1901 16.5573 13.0755 16.7031 12.9297C16.849 12.7838 16.9635 12.6146 17.0469 12.4218C17.1302 12.2239 17.1719 12.0156 17.1719 11.7968C17.1719 11.5781 17.1302 11.3724 17.0469 11.1797C16.9635 10.9869 16.849 10.8177 16.7031 10.6718C16.5573 10.526 16.3854 10.4114 16.1875 10.3281C15.9948 10.2448 15.7891 10.2031 15.5703 10.2031H7.98438V8.60153H13.9688C14.1875 8.60153 14.3932 8.55987 14.5859 8.47653C14.7839 8.3932 14.9557 8.27862 15.1016 8.13278C15.2474 7.98695 15.362 7.81768 15.4453 7.62497C15.5286 7.42705 15.5703 7.21872 15.5703 6.99997C15.5703 6.78122 15.5286 6.57549 15.4453 6.38278C15.362 6.18487 15.2474 6.01299 15.1016 5.86716C14.9557 5.72132 14.7839 5.60674 14.5859 5.52341C14.3932 5.44007 14.1875 5.39841 13.9688 5.39841H7.1875V15H5.58594V3.79684H13.9688C14.4062 3.79684 14.8203 3.88278 15.2109 4.05466C15.6016 4.22132 15.9401 4.45049 16.2266 4.74216C16.5182 5.02862 16.7474 5.36716 16.9141 5.75778C17.0859 6.14841 17.1719 6.56247 17.1719 6.99997C17.1719 7.33851 17.1224 7.65882 17.0234 7.96091C16.9245 8.25778 16.7917 8.53382 16.625 8.78903C16.9375 8.89841 17.224 9.05205 17.4844 9.24997C17.75 9.44789 17.9766 9.67705 18.1641 9.93747C18.3568 10.1979 18.5052 10.4869 18.6094 10.8047C18.7188 11.1172 18.7734 11.4479 18.7734 11.7968ZM30.6953 8.99997C30.6953 9.39059 30.6224 9.75518 30.4766 10.0937C30.3307 10.4323 30.1302 10.7291 29.875 10.9843C29.625 11.2343 29.3281 11.4323 28.9844 11.5781C28.6458 11.7239 28.2839 11.7968 27.8984 11.7968H21.7656C21.8802 12.0312 22.0234 12.2474 22.1953 12.4453C22.3672 12.6432 22.5599 12.8125 22.7734 12.9531C22.987 13.0937 23.2188 13.2031 23.4688 13.2812C23.724 13.3593 23.9896 13.3984 24.2656 13.3984H29.5V15H24.2656C23.6615 14.9948 23.0938 14.8776 22.5625 14.6484C22.0312 14.414 21.5677 14.0989 21.1719 13.7031C20.7812 13.3021 20.4714 12.8359 20.2422 12.3047C20.013 11.7734 19.8984 11.2057 19.8984 10.6015C19.8984 9.99737 20.013 9.42966 20.2422 8.89841C20.4714 8.36716 20.7812 7.90362 21.1719 7.50778C21.5677 7.10674 22.0312 6.79164 22.5625 6.56247C23.0938 6.32809 23.6615 6.2083 24.2656 6.20309H27.8984C28.2839 6.20309 28.6458 6.27601 28.9844 6.42184C29.3281 6.56768 29.625 6.7682 29.875 7.02341C30.1302 7.27341 30.3307 7.56768 30.4766 7.90622C30.6224 8.24476 30.6953 8.60934 30.6953 8.99997ZM27.8984 10.2031C28.0599 10.2031 28.2135 10.1718 28.3594 10.1093C28.5052 10.0468 28.6328 9.96091 28.7422 9.85153C28.8516 9.74216 28.9375 9.61455 29 9.46872C29.0625 9.32289 29.0938 9.16664 29.0938 8.99997C29.0938 8.83851 29.0625 8.68487 29 8.53903C28.9375 8.3932 28.8516 8.26559 28.7422 8.15622C28.6328 8.04684 28.5052 7.96091 28.3594 7.89841C28.2135 7.8307 28.0599 7.79684 27.8984 7.79684H24.2656C23.9115 7.79684 23.5781 7.85934 23.2656 7.98434C22.9583 8.10934 22.6823 8.28122 22.4375 8.49997C22.1979 8.71351 21.9974 8.96872 21.8359 9.26559C21.6797 9.55726 21.5781 9.86976 21.5312 10.2031H27.8984ZM35.3594 15H33.7578V7.79684H31.3594V6.20309H33.7578V2.99997H35.3594V6.20309H40.9609V7.79684H35.3594V15ZM45.3125 15H43.7109V7.79684H41.3125V6.20309H43.7109V2.99997H45.3125V6.20309H50.9141V7.79684H45.3125V15ZM62.3047 8.99997C62.3047 9.39059 62.2318 9.75518 62.0859 10.0937C61.9401 10.4323 61.7396 10.7291 61.4844 10.9843C61.2344 11.2343 60.9375 11.4323 60.5938 11.5781C60.2552 11.7239 59.8932 11.7968 59.5078 11.7968H53.375C53.4896 12.0312 53.6328 12.2474 53.8047 12.4453C53.9766 12.6432 54.1693 12.8125 54.3828 12.9531C54.5964 13.0937 54.8281 13.2031 55.0781 13.2812C55.3333 13.3593 55.599 13.3984 55.875 13.3984H61.1094V15H55.875C55.2708 14.9948 54.7031 14.8776 54.1719 14.6484C53.6406 14.414 53.1771 14.0989 52.7812 13.7031C52.3906 13.3021 52.0807 12.8359 51.8516 12.3047C51.6224 11.7734 51.5078 11.2057 51.5078 10.6015C51.5078 9.99737 51.6224 9.42966 51.8516 8.89841C52.0807 8.36716 52.3906 7.90362 52.7812 7.50778C53.1771 7.10674 53.6406 6.79164 54.1719 6.56247C54.7031 6.32809 55.2708 6.2083 55.875 6.20309H59.5078C59.8932 6.20309 60.2552 6.27601 60.5938 6.42184C60.9375 6.56768 61.2344 6.7682 61.4844 7.02341C61.7396 7.27341 61.9401 7.56768 62.0859 7.90622C62.2318 8.24476 62.3047 8.60934 62.3047 8.99997ZM59.5078 10.2031C59.6693 10.2031 59.8229 10.1718 59.9688 10.1093C60.1146 10.0468 60.2422 9.96091 60.3516 9.85153C60.4609 9.74216 60.5469 9.61455 60.6094 9.46872C60.6719 9.32289 60.7031 9.16664 60.7031 8.99997C60.7031 8.83851 60.6719 8.68487 60.6094 8.53903C60.5469 8.3932 60.4609 8.26559 60.3516 8.15622C60.2422 8.04684 60.1146 7.96091 59.9688 7.89841C59.8229 7.8307 59.6693 7.79684 59.5078 7.79684H55.875C55.5208 7.79684 55.1875 7.85934 54.875 7.98434C54.5677 8.10934 54.2917 8.28122 54.0469 8.49997C53.8073 8.71351 53.6068 8.96872 53.4453 9.26559C53.2891 9.55726 53.1875 9.86976 53.1406 10.2031H59.5078ZM72.6172 7.79684H66.6172C66.4505 7.79684 66.2943 7.8307 66.1484 7.89841C66.0026 7.96091 65.875 8.04684 65.7656 8.15622C65.6562 8.26559 65.5703 8.3932 65.5078 8.53903C65.4453 8.68487 65.4141 8.83851 65.4141 8.99997V15H63.8125V8.99997C63.8125 8.60934 63.8854 8.24476 64.0312 7.90622C64.1771 7.56768 64.3776 7.27341 64.6328 7.02341C64.888 6.7682 65.1849 6.56768 65.5234 6.42184C65.862 6.27601 66.2266 6.20309 66.6172 6.20309H72.6172V7.79684Z" fill="white"/>
</svg>
